<?xml version="1.0" encoding="UTF-8"?>
<svg width="32px" height="32px" viewBox="0 0 32 32" version="1.1" xmlns="http://www.w3.org/2000/svg" xmlns:xlink="http://www.w3.org/1999/xlink">
    <title>Vite Logo</title>
    <g stroke="none" stroke-width="1" fill="none" fill-rule="evenodd">
        <path d="M29.8842,5.55115 L16.298,28.9712 C16.1648,29.2133 15.8347,29.2133 15.7018,28.9712 L2.11595,5.55115 C1.97244,5.29346 2.17083,4.97138 2.46326,5.01982 L16.0001,7.50051 L29.5362,5.01982 C29.8289,4.97138 30.0277,5.29346 29.8842,5.55115 Z" fill="#646CFF" fill-rule="nonzero"></path>
        <path d="M23.4987,0.0901675 L16.5757,1.54732 C16.5149,1.56152 16.4685,1.60792 16.4543,1.66875 L15.1643,6.72063 C15.1374,6.83466 15.2308,6.93933 15.3455,6.91989 L18.3614,6.50918 C18.4919,6.48683 18.6001,6.60773 18.5667,6.73622 L16.8488,12.3547 C16.8098,12.5039 16.9996,12.6129 17.1068,12.5064 L19.0701,10.5555 C19.1787,10.4478 19.3701,10.5589 19.3281,10.7067 L17.9292,16.1055 C17.8849,16.2612 18.0994,16.3658 18.1987,16.2346 L18.5848,15.7264 L26.9644,3.33832 C27.0574,3.20666 26.9504,3.02632 26.7917,3.06084 L21.2681,4.07965 C21.1344,4.10839 21.0456,3.94032 21.1318,3.83546 L24.0988,0.217492 C24.1863,0.110583 24.0929,-0.0578554 23.9543,-0.0294252 L23.4987,0.0901675 Z" fill="#FFDD35" fill-rule="nonzero"></path>
    </g>
</svg>